<?xml version="1.0" standalone="no"?>
<!DOCTYPE svg PUBLIC "-//W3C//DTD SVG 20010904//EN"
 "http://www.w3.org/TR/2001/REC-SVG-20010904/DTD/svg10.dtd">
<svg version="1.0" xmlns="http://www.w3.org/2000/svg"
 width="500.000000pt" height="500.000000pt" viewBox="0 0 500.000000 500.000000"
 preserveAspectRatio="xMidYMid meet">
<metadata>
Created by potrace 1.11, written by Peter Selinger 2001-2013
</metadata>
<g transform="translate(0.000000,500.000000) scale(0.100000,-0.100000)"
fill="#000000" stroke="none">
<path d="M2337 4675 c6 -18 5 -18 -10 -6 -9 7 -17 9 -17 4 0 -6 -12 -9 -27 -7
-15 1 -33 -2 -40 -8 -9 -7 -13 -7 -13 1 0 7 -8 8 -25 1 -14 -5 -25 -7 -25 -4
0 2 -8 0 -18 -5 -13 -7 -22 -7 -29 0 -8 8 -13 7 -18 -2 -5 -8 -4 -10 3 -5 7 4
12 2 12 -3 0 -14 -6 -14 -32 0 -16 9 -19 8 -13 -2 6 -9 2 -11 -13 -7 -13 4
-22 1 -22 -5 0 -7 -5 -5 -10 3 -5 8 -10 10 -10 4 0 -7 -7 -15 -16 -18 -8 -3
-12 -2 -9 4 3 6 1 10 -4 10 -6 0 -11 -3 -11 -8 0 -4 -24 -13 -52 -20 -29 -8
-57 -15 -63 -16 -5 -2 -25 -7 -42 -11 -18 -4 -31 -11 -28 -15 2 -4 -3 -7 -13
-7 -46 0 -63 -4 -57 -13 3 -6 -5 -10 -19 -10 -14 0 -28 -5 -31 -10 -4 -6 -11
-8 -16 -5 -5 4 -11 0 -14 -7 -3 -8 -18 -15 -33 -16 -15 -1 -28 -7 -30 -12 -2
-6 -10 -10 -17 -10 -7 0 -16 -6 -18 -12 -4 -9 -6 -9 -6 2 -1 10 -6 8 -16 -7
-10 -14 -21 -20 -32 -16 -12 5 -14 3 -8 -7 6 -10 2 -12 -18 -8 -15 3 -24 1
-21 -3 3 -5 -6 -11 -20 -15 -13 -3 -27 -12 -30 -20 -3 -8 -12 -14 -20 -14 -7
0 -16 -7 -20 -15 -3 -8 -13 -15 -21 -15 -9 0 -23 -7 -32 -15 -8 -8 -20 -12
-26 -8 -7 4 -8 0 -4 -11 4 -10 3 -15 -3 -11 -6 3 -10 1 -10 -6 0 -8 -5 -8 -17
2 -10 7 -15 9 -11 5 8 -10 -45 -66 -62 -66 -6 0 -8 -4 -5 -10 3 -6 -1 -7 -10
-4 -11 5 -18 0 -22 -14 -3 -14 -10 -19 -21 -15 -12 5 -14 2 -9 -11 4 -9 3 -15
-2 -12 -11 7 -82 -59 -73 -68 3 -4 -1 -4 -10 -1 -9 4 -19 1 -24 -6 -4 -8 -3
-10 4 -5 7 4 12 5 12 1 0 -3 -11 -10 -25 -15 -14 -5 -24 -15 -23 -22 2 -7 -3
-12 -9 -11 -7 2 -13 -4 -13 -13 0 -8 -4 -12 -10 -9 -5 3 -10 2 -10 -4 0 -16
-46 -61 -54 -53 -4 4 -7 3 -6 -3 4 -18 -12 -55 -21 -49 -5 3 -9 -2 -9 -10 0
-9 -6 -15 -12 -13 -7 1 -12 -6 -12 -15 1 -10 -2 -15 -7 -12 -8 5 -13 -9 -10
-29 0 -4 -2 -6 -6 -6 -19 3 -36 -2 -30 -8 4 -3 -2 -13 -14 -21 -17 -12 -18
-16 -7 -30 7 -9 8 -13 2 -9 -15 9 -38 -19 -28 -34 4 -8 3 -9 -4 -5 -7 4 -12 3
-12 -2 0 -5 -9 -19 -20 -32 -11 -12 -17 -27 -14 -31 3 -5 -2 -9 -12 -9 -14 0
-14 -3 -4 -16 8 -8 9 -14 4 -12 -5 2 -10 -1 -11 -6 0 -5 -8 -13 -17 -18 -9 -5
-16 -18 -16 -28 0 -11 -4 -20 -10 -20 -5 0 -10 -9 -10 -20 0 -10 -8 -24 -17
-29 -10 -6 -15 -11 -10 -11 4 0 0 -12 -10 -27 -14 -22 -15 -26 -2 -18 8 6 7 2
-4 -7 -10 -10 -16 -22 -12 -28 3 -5 1 -10 -5 -10 -6 0 -8 -4 -5 -10 3 -5 1
-10 -5 -10 -6 0 -8 -4 -5 -10 3 -5 1 -10 -5 -10 -6 0 -9 -4 -5 -9 3 -5 -2 -17
-11 -25 -9 -9 -11 -16 -4 -16 7 0 5 -7 -4 -16 -9 -8 -14 -20 -11 -25 4 -5 1
-9 -5 -9 -7 0 -10 -6 -7 -14 3 -7 1 -18 -4 -23 -5 -5 -10 -23 -12 -41 -2 -18
-9 -38 -15 -44 -16 -16 -15 -31 1 -22 7 5 6 1 -3 -10 -8 -10 -16 -30 -17 -45
-2 -14 -4 -32 -5 -38 -1 -7 -6 -13 -11 -13 -6 0 -5 -5 1 -13 7 -8 7 -17 -2
-29 -7 -10 -12 -31 -11 -47 1 -17 -2 -28 -7 -25 -5 3 -7 -6 -4 -20 3 -14 0
-26 -5 -26 -6 0 -6 -7 1 -19 13 -25 13 -31 -1 -31 -5 0 -7 5 -3 12 4 7 3 8 -5
4 -9 -6 -9 -11 -1 -21 8 -10 8 -15 0 -20 -8 -5 -8 -10 0 -20 8 -10 8 -14 -1
-17 -8 -3 -9 -9 -4 -18 11 -18 14 -51 4 -44 -8 5 -10 -7 -9 -69 1 -24 -3 -36
-10 -32 -6 3 -7 0 -4 -9 3 -9 11 -13 16 -10 6 4 4 -4 -3 -17 -7 -13 -11 -26
-10 -29 2 -3 7 -13 13 -24 7 -13 7 -16 -1 -12 -6 4 -11 2 -11 -3 0 -6 4 -11 9
-11 5 0 7 -9 4 -20 -3 -13 0 -20 8 -20 10 0 10 -3 1 -12 -15 -15 -16 -32 -1
-22 8 5 8 1 0 -14 -8 -14 -8 -23 -1 -27 8 -5 8 -11 1 -19 -6 -7 -8 -16 -4 -20
4 -4 8 -17 10 -29 3 -32 8 -50 16 -64 4 -6 1 -14 -5 -16 -10 -4 -10 -7 0 -15
7 -5 12 -13 11 -18 -4 -24 2 -65 9 -60 5 3 9 -1 9 -9 0 -8 -4 -12 -9 -9 -4 3
-5 -2 -2 -10 3 -9 11 -16 18 -16 6 0 4 -5 -4 -10 -8 -5 -10 -10 -3 -10 6 0 9
-9 5 -22 -4 -16 -2 -19 8 -13 9 6 11 4 5 -5 -4 -7 -2 -16 6 -21 12 -7 12 -11
1 -18 -11 -7 -11 -11 0 -22 16 -16 18 -21 18 -50 0 -11 4 -18 8 -15 5 3 9 -11
10 -32 1 -20 6 -38 12 -40 5 -2 10 -12 10 -23 0 -10 4 -19 8 -19 4 0 8 -10 9
-22 1 -11 7 -25 14 -29 7 -4 9 -14 6 -23 -4 -10 -1 -19 8 -22 8 -4 13 -10 10
-14 -3 -5 1 -15 9 -23 8 -8 12 -17 9 -21 -4 -3 -1 -6 6 -6 7 0 11 -6 8 -13 -3
-7 3 -19 14 -25 10 -7 16 -18 13 -26 -3 -7 2 -16 10 -19 9 -4 13 -13 10 -22
-4 -8 1 -17 10 -21 9 -3 16 -17 16 -30 0 -15 6 -24 16 -24 8 0 13 -4 10 -9 -4
-5 -3 -11 2 -13 4 -1 20 -25 36 -51 15 -27 39 -58 52 -70 13 -11 24 -27 24
-34 0 -7 5 -13 10 -13 6 0 10 -6 10 -13 0 -7 9 -18 20 -25 11 -7 20 -19 20
-28 0 -8 3 -13 8 -11 4 3 16 -4 27 -15 20 -19 20 -19 0 -13 -11 4 -5 -2 13
-14 18 -12 30 -26 27 -31 -3 -6 1 -10 10 -10 9 0 14 -4 11 -8 -6 -10 30 -43
38 -35 3 4 6 -1 6 -10 0 -8 9 -19 20 -22 11 -3 20 -13 20 -21 0 -8 7 -14 15
-14 8 0 15 -4 15 -10 0 -5 7 -10 15 -10 8 0 15 -7 15 -15 0 -8 5 -15 10 -15 6
0 22 -11 35 -25 14 -13 25 -21 25 -17 0 4 5 -1 11 -10 5 -10 14 -18 19 -18 5
0 21 -11 35 -26 14 -14 39 -30 56 -36 16 -6 28 -13 25 -16 -6 -5 12 -18 74
-49 19 -10 37 -21 38 -25 2 -5 10 -8 18 -8 8 0 14 -4 14 -10 0 -5 9 -10 20
-10 11 0 20 -5 20 -11 0 -5 5 -7 10 -4 6 3 10 2 10 -3 0 -6 7 -13 16 -16 10
-4 13 -2 9 7 -4 6 0 4 8 -5 8 -10 17 -15 20 -11 4 3 7 1 7 -6 0 -7 4 -9 10 -6
5 3 10 1 10 -5 0 -6 4 -9 9 -5 5 3 13 0 16 -6 4 -5 14 -8 22 -5 8 3 12 2 9 -3
-3 -5 1 -12 10 -15 10 -4 13 -2 8 7 -4 6 2 3 14 -7 12 -11 22 -15 22 -10 0 5
4 5 8 -1 4 -5 18 -16 31 -23 19 -11 22 -11 15 0 -4 7 2 4 14 -6 13 -11 22 -14
22 -7 0 12 38 -5 52 -24 5 -6 8 -5 8 4 0 11 3 11 16 0 9 -7 28 -15 42 -17 14
-2 33 -7 42 -12 11 -6 22 -5 30 3 10 9 11 9 6 0 -6 -12 18 -19 47 -14 4 0 7
-3 7 -8 0 -5 11 -8 25 -6 14 1 25 -3 25 -9 0 -6 5 -4 10 4 7 12 10 12 10 1 0
-7 6 -11 15 -7 8 3 15 2 15 -2 0 -4 15 -7 33 -7 17 1 35 -4 39 -10 5 -6 8 -5
8 3 0 9 5 10 19 3 10 -6 21 -7 25 -4 3 3 6 1 6 -5 0 -7 5 -12 11 -12 5 0 7 5
3 11 -5 8 -1 8 14 0 15 -8 23 -8 28 0 4 8 9 7 15 -2 7 -12 9 -12 9 0 0 10 3
11 14 2 11 -9 15 -9 19 1 4 8 6 7 6 -4 1 -20 21 -25 21 -5 0 8 4 7 10 -3 7
-11 10 -11 10 -2 0 7 4 10 10 7 16 -10 80 -12 80 -3 0 5 9 4 19 -2 24 -12 34
-13 27 -1 -4 5 3 7 14 4 13 -3 20 0 20 8 0 10 3 10 11 2 8 -8 20 -8 35 -3 15
6 24 6 24 0 0 -12 22 -9 32 5 5 6 8 5 8 -4 0 -11 3 -11 15 -1 8 7 15 9 15 4 0
-4 7 1 16 12 8 10 13 14 10 8 -3 -7 3 -14 14 -17 11 -3 20 -1 20 5 0 6 7 8 15
5 8 -4 17 -2 20 3 3 5 12 7 20 3 9 -3 15 1 15 8 0 11 3 11 10 -1 6 -9 10 -11
10 -3 0 7 7 10 15 7 8 -4 15 -1 15 5 0 13 22 10 32 -4 5 -6 8 -5 8 3 0 7 5 10
10 7 6 -3 10 -2 10 3 0 5 8 9 18 9 36 -2 82 15 75 26 -5 8 -2 8 9 0 8 -7 18
-9 22 -5 7 7 11 8 37 11 5 0 8 5 5 10 -3 4 6 7 19 5 14 -1 27 2 30 6 3 5 14 7
25 5 11 -2 23 1 26 7 5 7 2 8 -6 3 -9 -5 -11 -4 -6 4 4 6 12 9 17 5 5 -3 17 0
25 7 8 6 17 9 21 5 3 -3 13 3 20 14 8 11 19 18 24 14 5 -3 17 0 26 8 14 11 16
11 9 -2 -4 -8 2 -4 14 10 12 14 19 19 15 13 -8 -18 26 -4 43 16 11 13 12 13 7
1 -4 -10 -2 -9 8 2 8 10 17 15 20 11 4 -3 7 -1 7 6 0 7 6 11 14 8 8 -3 17 1
20 9 3 8 15 14 26 14 11 0 23 7 26 15 4 8 9 13 14 10 9 -6 72 40 64 48 -3 3 5
3 18 0 18 -4 20 -3 8 6 -12 9 -11 11 8 11 12 0 22 5 22 11 0 5 4 8 9 5 5 -3
12 1 15 10 3 9 11 12 18 8 8 -5 9 -2 5 10 -4 10 -2 16 6 15 25 -3 38 1 32 11
-3 6 5 14 19 20 15 5 25 15 24 22 -2 7 5 12 15 10 10 -2 17 3 17 13 0 9 4 14
8 11 5 -3 23 11 40 30 18 20 32 33 32 30 0 -3 15 9 33 27 17 17 31 35 29 40
-1 5 2 6 8 2 5 -3 13 1 16 9 3 9 14 16 23 16 14 0 14 2 1 10 -13 9 -8 14 12
11 4 0 10 8 13 19 4 11 11 20 16 20 5 0 9 8 9 18 0 14 2 15 10 2 8 -12 10 -10
10 8 0 13 4 20 10 17 6 -3 10 1 10 9 0 8 10 22 22 30 12 9 19 16 14 16 -5 0 1
9 14 20 13 11 20 20 17 20 -4 0 2 9 13 20 12 12 18 25 15 30 -4 6 1 7 11 3 12
-4 15 -3 10 5 -4 7 -2 12 4 12 6 0 8 4 5 10 -3 5 -1 10 5 10 6 0 8 5 5 10 -3
6 -1 10 5 10 7 0 10 7 7 15 -4 8 -1 17 5 21 7 5 8 2 3 -6 -5 -9 -4 -11 3 -6 7
4 12 14 12 22 0 8 5 14 11 14 5 0 7 5 4 10 -3 6 -2 10 2 10 5 0 14 9 21 21 10
16 10 19 1 13 -7 -4 -4 5 7 19 10 15 22 27 27 27 4 0 7 5 7 11 0 5 -6 7 -12 4
-7 -4 -6 -1 2 7 16 14 55 89 52 101 -1 4 3 7 8 7 6 0 10 5 10 11 0 5 -6 7 -13
4 -6 -4 -4 0 5 8 10 8 15 17 11 20 -3 4 -1 7 6 7 7 0 9 5 6 10 -3 6 -2 10 4
10 5 0 8 11 7 25 -2 13 2 23 8 22 6 -1 11 8 10 21 0 12 3 22 8 22 5 0 6 5 3
10 -3 6 -1 10 6 10 9 0 9 3 0 14 -9 11 -9 16 2 23 16 9 39 92 30 106 -4 6 -1
7 7 2 10 -6 12 -3 8 13 -4 13 -1 22 5 22 6 0 7 3 4 7 -4 3 -1 13 6 21 10 13 9
14 -3 7 -13 -7 -13 -6 -2 7 7 9 12 20 11 24 -4 26 2 45 14 38 9 -6 9 -5 0 7
-10 12 -9 20 3 37 13 20 13 21 -1 16 -11 -5 -14 -2 -9 10 3 9 9 14 13 11 5 -2
7 8 6 23 -1 15 3 33 9 41 8 11 8 13 -1 7 -16 -9 -16 -1 -1 24 10 16 10 24 0
41 -8 12 -9 18 -3 15 5 -4 12 -2 16 4 3 5 1 10 -6 10 -8 0 -7 5 2 17 8 9 9 14
3 10 -7 -4 -14 0 -17 8 -4 10 -1 12 10 8 11 -4 14 -3 9 6 -4 6 -2 19 6 28 9
12 9 15 1 9 -15 -8 -17 3 -3 24 6 9 5 19 -2 28 -9 10 -8 16 1 22 10 5 10 9 2
15 -9 5 -9 11 1 23 10 12 10 14 1 8 -7 -4 -13 -3 -13 3 0 5 5 13 10 16 7 4 8
11 2 18 -14 17 -23 119 -10 111 7 -4 7 0 0 12 -6 11 -10 22 -11 27 -1 4 -1 8
-2 10 -6 19 -3 47 5 47 6 0 5 4 -2 9 -7 4 -14 22 -14 39 -1 17 -5 29 -11 25
-5 -3 -4 3 2 14 6 11 6 24 1 29 -4 5 -11 24 -13 42 -3 18 -11 40 -19 49 -9 12
-9 15 0 9 16 -10 15 -1 -4 36 -12 22 -12 28 -2 22 10 -6 11 -5 1 8 -7 8 -10
18 -6 21 3 4 1 7 -5 7 -6 0 -9 7 -5 17 4 9 2 14 -3 11 -5 -4 -10 8 -11 25 -1
17 -6 33 -10 36 -5 3 -10 20 -11 36 -2 17 -8 32 -13 33 -5 2 -9 12 -9 23 0 10
-5 19 -10 19 -6 0 -9 3 -9 8 3 18 -2 33 -10 28 -4 -3 -7 6 -5 19 1 18 -3 25
-14 25 -13 0 -14 2 -4 9 11 6 10 11 -3 24 -9 9 -13 21 -10 27 3 5 2 10 -2 10
-12 0 -45 58 -39 68 2 4 -15 34 -40 66 -24 32 -41 63 -38 67 3 5 0 9 -5 9 -6
0 -11 7 -11 15 0 8 -4 15 -10 15 -5 0 -10 7 -10 15 0 8 -5 15 -11 15 -6 0 -8
7 -5 16 3 8 2 12 -4 9 -6 -3 -13 1 -16 9 -3 9 -11 13 -18 9 -6 -4 -5 1 3 11
12 15 12 17 0 14 -8 -2 -13 3 -11 10 1 8 -2 11 -7 7 -6 -3 -15 5 -22 17 -7 13
-20 30 -31 39 -10 9 -18 24 -18 34 0 11 -5 15 -16 11 -8 -3 -13 -2 -10 2 3 5
-4 15 -15 22 -10 8 -19 19 -19 24 0 5 -18 27 -40 47 -22 21 -40 43 -40 51 0
10 -3 9 -10 -2 -8 -13 -10 -13 -10 1 0 17 -27 34 -45 30 -5 -2 -7 1 -3 4 7 8
-40 56 -79 82 -13 9 -20 19 -17 24 3 5 2 9 -3 8 -21 -4 -44 2 -39 9 3 5 -6 15
-19 22 -14 7 -25 17 -25 22 0 4 -7 8 -15 8 -8 0 -15 4 -15 9 0 5 -13 14 -30
21 -16 7 -30 17 -30 22 0 5 -4 6 -10 3 -5 -3 -10 -1 -10 5 0 6 -4 8 -10 5 -5
-3 -10 -1 -10 4 0 6 -7 11 -16 11 -8 0 -12 5 -9 10 3 6 -3 10 -14 10 -12 0
-21 3 -21 8 0 8 -49 32 -67 32 -7 0 -13 5 -13 10 0 6 -7 10 -16 10 -8 0 -22 7
-31 15 -8 8 -18 13 -23 10 -4 -3 -13 2 -20 10 -6 7 -18 11 -26 8 -8 -3 -14 0
-14 6 0 6 -9 11 -20 11 -11 0 -20 5 -20 11 0 6 -7 9 -15 5 -8 -3 -15 0 -15 6
0 6 -3 8 -7 5 -3 -4 -12 1 -19 11 -10 12 -13 13 -14 3 0 -11 -3 -11 -15 -1 -8
6 -19 9 -25 5 -5 -3 -10 -2 -10 3 0 10 -56 26 -79 23 -7 -1 -10 2 -6 8 3 6 2
11 -4 11 -5 0 -12 -6 -14 -12 -3 -8 -6 -6 -6 4 -1 11 -8 16 -21 13 -11 -2 -20
2 -20 8 0 7 -4 6 -10 -3 -8 -12 -10 -12 -10 -1 0 8 -7 11 -20 8 -11 -3 -20 -1
-20 5 0 5 -4 7 -9 4 -5 -4 -12 0 -14 6 -4 10 -6 9 -6 -1 -1 -11 -4 -11 -17 0
-17 14 -20 14 -92 17 -29 1 -41 6 -36 13 4 7 -1 7 -16 -1 -14 -8 -25 -9 -29
-2 -3 5 -17 9 -31 8 -14 -1 -39 1 -57 5 -25 5 -33 3 -36 -10 -4 -13 -5 -13 -6
2 0 10 -5 15 -11 12 -5 -3 -16 -3 -22 2 -20 12 -41 10 -61 -6 -16 -13 -17 -13
-12 0 4 10 -1 15 -15 15 -11 0 -20 -4 -20 -9 0 -5 -7 -4 -15 3 -12 10 -15 10
-15 0 0 -9 -3 -10 -13 -1 -10 8 -19 7 -33 -3 -13 -10 -23 -11 -31 -4 -9 7 -13
7 -13 -3 0 -8 -6 -5 -15 7 -15 19 -15 19 -8 -1z m1638 -765 c-3 -5 -1 -10 4
-10 6 0 11 6 11 13 1 7 6 5 14 -5 7 -10 17 -14 21 -10 5 4 5 2 2 -4 -4 -6 1
-20 9 -30 9 -10 12 -13 8 -5 -5 9 -3 12 4 7 7 -4 12 -14 12 -22 0 -8 8 -14 17
-14 9 0 13 -3 10 -6 -10 -11 13 -45 25 -38 6 4 8 3 4 -4 -3 -6 2 -17 12 -24
19 -13 22 -18 22 -39 0 -5 5 -7 10 -4 6 3 10 -1 10 -9 0 -9 5 -16 10 -16 12 0
9 -22 -4 -31 -4 -4 -30 -5 -57 -3 -36 2 -48 0 -42 -9 4 -7 0 -6 -10 2 -9 7
-17 10 -17 7 0 -4 -9 -2 -20 4 -11 6 -20 7 -20 1 0 -12 -53 -9 -62 4 -5 6 -8
5 -8 -4 0 -10 -3 -11 -14 -2 -11 10 -17 8 -25 -6 -6 -10 -11 -13 -11 -7 0 7
-20 11 -50 11 -31 0 -47 -3 -43 -10 4 -6 1 -7 -8 -1 -19 12 -69 13 -69 2 0 -5
-7 -2 -16 7 -12 11 -20 13 -27 6 -15 -15 -30 -14 -21 2 5 8 2 8 -9 -2 -13 -10
-20 -11 -31 -2 -9 7 -17 8 -20 2 -3 -5 -16 -7 -28 -3 -16 4 -19 2 -13 -9 6
-11 5 -11 -5 -2 -7 6 -19 9 -28 6 -11 -5 -13 -3 -7 7 6 9 4 11 -6 5 -19 -12
-59 -15 -59 -5 0 5 5 12 10 15 6 4 8 11 5 16 -3 5 2 6 11 2 10 -4 15 -2 11 3
-3 6 7 18 24 28 16 9 27 22 23 27 -3 5 -2 9 3 8 14 -4 48 14 66 35 10 12 22
21 27 21 5 0 12 3 16 8 11 11 26 9 19 -3 -3 -6 5 -10 18 -10 16 0 26 -7 29
-18 4 -14 16 -19 42 -20 22 -1 34 3 31 8 -3 6 -1 10 5 10 7 0 9 7 6 16 -3 8
-2 12 4 9 6 -3 10 1 10 9 0 9 7 16 16 16 9 0 12 5 8 12 -5 8 2 9 27 5 24 -5
30 -4 19 3 -12 8 -11 10 8 10 13 0 21 4 18 8 -2 4 10 8 27 7 19 0 33 5 33 13
2 19 4 22 10 22 3 0 2 -4 -1 -10z"/>
</g>
</svg>
